<mxfile host="app.diagrams.net" agent="Mozilla/5.0 (Macintosh; Intel Mac OS X 10_15_7) AppleWebKit/605.1.15 (KHTML, like Gecko) Version/17.3 Safari/605.1.15" version="24.8.3">
  <diagram name="Page-1" id="-Uo3bXqPBVSGJieR212v">
    <mxGraphModel dx="954" dy="622" grid="1" gridSize="10" guides="1" tooltips="1" connect="1" arrows="1" fold="1" page="1" pageScale="1" pageWidth="827" pageHeight="1169" math="0" shadow="0">
      <root>
        <mxCell id="0" />
        <mxCell id="1" parent="0" />
        <mxCell id="VXRDN6rEVHIm9vuL8mrb-7" value="" style="edgeStyle=orthogonalEdgeStyle;rounded=0;orthogonalLoop=1;jettySize=auto;html=1;dashed=1;" edge="1" parent="1" source="VXRDN6rEVHIm9vuL8mrb-20" target="VXRDN6rEVHIm9vuL8mrb-25">
          <mxGeometry relative="1" as="geometry" />
        </mxCell>
        <mxCell id="VXRDN6rEVHIm9vuL8mrb-8" value="" style="edgeStyle=orthogonalEdgeStyle;rounded=0;orthogonalLoop=1;jettySize=auto;html=1;" edge="1" parent="1" source="VXRDN6rEVHIm9vuL8mrb-18" target="VXRDN6rEVHIm9vuL8mrb-13">
          <mxGeometry relative="1" as="geometry" />
        </mxCell>
        <mxCell id="VXRDN6rEVHIm9vuL8mrb-9" style="edgeStyle=orthogonalEdgeStyle;rounded=0;orthogonalLoop=1;jettySize=auto;html=1;entryX=1;entryY=0.5;entryDx=0;entryDy=0;dashed=1;dashPattern=1 4;" edge="1" parent="1" source="VXRDN6rEVHIm9vuL8mrb-21" target="VXRDN6rEVHIm9vuL8mrb-18">
          <mxGeometry relative="1" as="geometry" />
        </mxCell>
        <mxCell id="VXRDN6rEVHIm9vuL8mrb-10" value="" style="edgeStyle=orthogonalEdgeStyle;rounded=0;orthogonalLoop=1;jettySize=auto;html=1;" edge="1" parent="1" source="VXRDN6rEVHIm9vuL8mrb-26" target="VXRDN6rEVHIm9vuL8mrb-21">
          <mxGeometry relative="1" as="geometry" />
        </mxCell>
        <mxCell id="VXRDN6rEVHIm9vuL8mrb-13" value="b&lt;sub&gt;N&lt;/sub&gt;" style="rounded=0;whiteSpace=wrap;html=1;fillColor=#d5e8d4;strokeColor=#82b366;" vertex="1" parent="1">
          <mxGeometry x="240" y="280" width="40" height="40" as="geometry" />
        </mxCell>
        <mxCell id="VXRDN6rEVHIm9vuL8mrb-33" value="" style="edgeStyle=orthogonalEdgeStyle;rounded=0;orthogonalLoop=1;jettySize=auto;html=1;dashed=1;" edge="1" parent="1" source="VXRDN6rEVHIm9vuL8mrb-17" target="VXRDN6rEVHIm9vuL8mrb-20">
          <mxGeometry relative="1" as="geometry" />
        </mxCell>
        <mxCell id="VXRDN6rEVHIm9vuL8mrb-17" value="f&lt;span style=&quot;font-size: 9px;&quot;&gt;&lt;sub&gt;N-2&lt;/sub&gt;&lt;/span&gt;" style="rounded=0;whiteSpace=wrap;html=1;dashed=1;" vertex="1" parent="1">
          <mxGeometry x="320" y="200" width="40" height="40" as="geometry" />
        </mxCell>
        <mxCell id="VXRDN6rEVHIm9vuL8mrb-18" value="b&lt;font size=&quot;1&quot;&gt;&lt;sub&gt;N-1&lt;/sub&gt;&lt;/font&gt;" style="rounded=0;whiteSpace=wrap;html=1;" vertex="1" parent="1">
          <mxGeometry x="320" y="280" width="40" height="40" as="geometry" />
        </mxCell>
        <mxCell id="VXRDN6rEVHIm9vuL8mrb-20" value="f&lt;span style=&quot;font-size: 9px;&quot;&gt;&lt;sub&gt;N-1&lt;/sub&gt;&lt;/span&gt;" style="rounded=0;whiteSpace=wrap;html=1;dashed=1;" vertex="1" parent="1">
          <mxGeometry x="400" y="200" width="40" height="40" as="geometry" />
        </mxCell>
        <mxCell id="VXRDN6rEVHIm9vuL8mrb-21" value="b&lt;span style=&quot;font-size: 9px;&quot;&gt;&lt;sub&gt;1&lt;/sub&gt;&lt;/span&gt;" style="rounded=0;whiteSpace=wrap;html=1;" vertex="1" parent="1">
          <mxGeometry x="560" y="280" width="40" height="40" as="geometry" />
        </mxCell>
        <mxCell id="VXRDN6rEVHIm9vuL8mrb-25" value="f&lt;span style=&quot;font-size: 7.5px;&quot;&gt;&lt;sub&gt;N&lt;/sub&gt;&lt;/span&gt;" style="rounded=0;whiteSpace=wrap;html=1;dashed=1;" vertex="1" parent="1">
          <mxGeometry x="480" y="200" width="40" height="40" as="geometry" />
        </mxCell>
        <mxCell id="VXRDN6rEVHIm9vuL8mrb-26" value="b&lt;span style=&quot;font-size: 7.5px;&quot;&gt;&lt;sub&gt;0&lt;/sub&gt;&lt;/span&gt;" style="rounded=0;whiteSpace=wrap;html=1;" vertex="1" parent="1">
          <mxGeometry x="640" y="280" width="40" height="40" as="geometry" />
        </mxCell>
        <mxCell id="VXRDN6rEVHIm9vuL8mrb-35" value="Execute &lt;b&gt;Rem, &lt;/b&gt;calling &lt;b&gt;Progress &lt;/b&gt;with&lt;b&gt; forward block&lt;/b&gt;" style="rounded=0;whiteSpace=wrap;html=1;strokeColor=none;" vertex="1" parent="1">
          <mxGeometry x="240" y="350" width="290" height="40" as="geometry" />
        </mxCell>
        <mxCell id="VXRDN6rEVHIm9vuL8mrb-37" value="" style="edgeStyle=orthogonalEdgeStyle;rounded=0;orthogonalLoop=1;jettySize=auto;html=1;strokeColor=default;dashed=1;" edge="1" parent="1" source="VXRDN6rEVHIm9vuL8mrb-36" target="VXRDN6rEVHIm9vuL8mrb-17">
          <mxGeometry relative="1" as="geometry" />
        </mxCell>
        <mxCell id="VXRDN6rEVHIm9vuL8mrb-36" value="f&lt;span style=&quot;font-size: 9px;&quot;&gt;&lt;sub&gt;N-3&lt;/sub&gt;&lt;/span&gt;" style="rounded=0;whiteSpace=wrap;html=1;fillColor=#d5e8d4;strokeColor=#82b366;" vertex="1" parent="1">
          <mxGeometry x="240" y="200" width="40" height="40" as="geometry" />
        </mxCell>
        <mxCell id="VXRDN6rEVHIm9vuL8mrb-39" value="e&lt;sub&gt;c&lt;/sub&gt;" style="rounded=0;whiteSpace=wrap;html=1;strokeColor=none;" vertex="1" parent="1">
          <mxGeometry x="240" y="150" width="40" height="40" as="geometry" />
        </mxCell>
        <mxCell id="VXRDN6rEVHIm9vuL8mrb-40" value="e&lt;sub&gt;r&lt;/sub&gt;" style="rounded=0;whiteSpace=wrap;html=1;strokeColor=none;" vertex="1" parent="1">
          <mxGeometry x="320" y="150" width="40" height="40" as="geometry" />
        </mxCell>
        <mxCell id="VXRDN6rEVHIm9vuL8mrb-42" value="" style="edgeStyle=orthogonalEdgeStyle;rounded=0;orthogonalLoop=1;jettySize=auto;html=1;dashed=1;" edge="1" parent="1" source="VXRDN6rEVHIm9vuL8mrb-50" target="VXRDN6rEVHIm9vuL8mrb-52">
          <mxGeometry relative="1" as="geometry" />
        </mxCell>
        <mxCell id="VXRDN6rEVHIm9vuL8mrb-43" value="" style="edgeStyle=orthogonalEdgeStyle;rounded=0;orthogonalLoop=1;jettySize=auto;html=1;" edge="1" parent="1" source="VXRDN6rEVHIm9vuL8mrb-49" target="VXRDN6rEVHIm9vuL8mrb-46">
          <mxGeometry relative="1" as="geometry" />
        </mxCell>
        <mxCell id="VXRDN6rEVHIm9vuL8mrb-44" style="edgeStyle=orthogonalEdgeStyle;rounded=0;orthogonalLoop=1;jettySize=auto;html=1;entryX=1;entryY=0.5;entryDx=0;entryDy=0;dashed=1;dashPattern=1 4;" edge="1" parent="1" source="VXRDN6rEVHIm9vuL8mrb-51" target="VXRDN6rEVHIm9vuL8mrb-49">
          <mxGeometry relative="1" as="geometry" />
        </mxCell>
        <mxCell id="VXRDN6rEVHIm9vuL8mrb-45" value="" style="edgeStyle=orthogonalEdgeStyle;rounded=0;orthogonalLoop=1;jettySize=auto;html=1;" edge="1" parent="1" source="VXRDN6rEVHIm9vuL8mrb-53" target="VXRDN6rEVHIm9vuL8mrb-51">
          <mxGeometry relative="1" as="geometry" />
        </mxCell>
        <mxCell id="VXRDN6rEVHIm9vuL8mrb-46" value="b&lt;sub&gt;N&lt;/sub&gt;" style="rounded=0;whiteSpace=wrap;html=1;fillColor=#d5e8d4;strokeColor=#82b366;" vertex="1" parent="1">
          <mxGeometry x="240" y="530" width="40" height="40" as="geometry" />
        </mxCell>
        <mxCell id="VXRDN6rEVHIm9vuL8mrb-47" value="" style="edgeStyle=orthogonalEdgeStyle;rounded=0;orthogonalLoop=1;jettySize=auto;html=1;dashed=1;" edge="1" parent="1" source="VXRDN6rEVHIm9vuL8mrb-48" target="VXRDN6rEVHIm9vuL8mrb-50">
          <mxGeometry relative="1" as="geometry" />
        </mxCell>
        <mxCell id="VXRDN6rEVHIm9vuL8mrb-48" value="f&lt;sup&gt;&#39;&lt;/sup&gt;&lt;sub&gt;0&lt;/sub&gt;" style="rounded=0;whiteSpace=wrap;html=1;fillColor=#d5e8d4;strokeColor=#82b366;" vertex="1" parent="1">
          <mxGeometry x="320" y="450" width="40" height="40" as="geometry" />
        </mxCell>
        <mxCell id="VXRDN6rEVHIm9vuL8mrb-49" value="b&lt;font size=&quot;1&quot;&gt;&lt;sub&gt;N-1&lt;/sub&gt;&lt;/font&gt;" style="rounded=0;whiteSpace=wrap;html=1;fillColor=#d5e8d4;strokeColor=#82b366;" vertex="1" parent="1">
          <mxGeometry x="320" y="530" width="40" height="40" as="geometry" />
        </mxCell>
        <mxCell id="VXRDN6rEVHIm9vuL8mrb-50" value="f&lt;sup&gt;&#39;&lt;/sup&gt;&lt;sub&gt;1&lt;/sub&gt;" style="rounded=0;whiteSpace=wrap;html=1;dashed=1;" vertex="1" parent="1">
          <mxGeometry x="400" y="450" width="40" height="40" as="geometry" />
        </mxCell>
        <mxCell id="VXRDN6rEVHIm9vuL8mrb-51" value="b&lt;span style=&quot;font-size: 9px;&quot;&gt;&lt;sub&gt;1&lt;/sub&gt;&lt;/span&gt;" style="rounded=0;whiteSpace=wrap;html=1;" vertex="1" parent="1">
          <mxGeometry x="560" y="530" width="40" height="40" as="geometry" />
        </mxCell>
        <mxCell id="VXRDN6rEVHIm9vuL8mrb-52" value="f&lt;sup&gt;&#39;&lt;/sup&gt;&lt;sub&gt;2&lt;/sub&gt;" style="rounded=0;whiteSpace=wrap;html=1;dashed=1;" vertex="1" parent="1">
          <mxGeometry x="480" y="450" width="40" height="40" as="geometry" />
        </mxCell>
        <mxCell id="VXRDN6rEVHIm9vuL8mrb-53" value="b&lt;span style=&quot;font-size: 7.5px;&quot;&gt;&lt;sub&gt;0&lt;/sub&gt;&lt;/span&gt;" style="rounded=0;whiteSpace=wrap;html=1;" vertex="1" parent="1">
          <mxGeometry x="640" y="530" width="40" height="40" as="geometry" />
        </mxCell>
        <mxCell id="VXRDN6rEVHIm9vuL8mrb-55" value="f&lt;span style=&quot;font-size: 9px;&quot;&gt;&lt;sub&gt;N-3&lt;/sub&gt;&lt;/span&gt;" style="rounded=0;whiteSpace=wrap;html=1;fillColor=#d5e8d4;strokeColor=#82b366;" vertex="1" parent="1">
          <mxGeometry x="240" y="450" width="40" height="40" as="geometry" />
        </mxCell>
        <mxCell id="VXRDN6rEVHIm9vuL8mrb-56" value="e&lt;sub&gt;c&lt;/sub&gt;" style="rounded=0;whiteSpace=wrap;html=1;strokeColor=none;" vertex="1" parent="1">
          <mxGeometry x="240" y="400" width="40" height="40" as="geometry" />
        </mxCell>
        <mxCell id="VXRDN6rEVHIm9vuL8mrb-57" value="e&lt;sub&gt;r&lt;/sub&gt;" style="rounded=0;whiteSpace=wrap;html=1;strokeColor=none;" vertex="1" parent="1">
          <mxGeometry x="320" y="400" width="40" height="40" as="geometry" />
        </mxCell>
        <mxCell id="VXRDN6rEVHIm9vuL8mrb-60" value="Send extension with forward SSKG from f&lt;sup&gt;&#39;&lt;/sup&gt;&lt;sub&gt;0&lt;/sub&gt;&amp;nbsp;&lt;div&gt;and &lt;b&gt;backward SSKG shortened to b&lt;sub&gt;N-1&lt;/sub&gt;&lt;/b&gt;&amp;nbsp;&lt;/div&gt;" style="rounded=0;whiteSpace=wrap;html=1;strokeColor=none;" vertex="1" parent="1">
          <mxGeometry x="240" y="600" width="290" height="40" as="geometry" />
        </mxCell>
        <mxCell id="VXRDN6rEVHIm9vuL8mrb-61" value="" style="edgeStyle=orthogonalEdgeStyle;rounded=0;orthogonalLoop=1;jettySize=auto;html=1;dashed=1;" edge="1" parent="1" source="VXRDN6rEVHIm9vuL8mrb-69" target="VXRDN6rEVHIm9vuL8mrb-71">
          <mxGeometry relative="1" as="geometry" />
        </mxCell>
        <mxCell id="VXRDN6rEVHIm9vuL8mrb-62" value="" style="edgeStyle=orthogonalEdgeStyle;rounded=0;orthogonalLoop=1;jettySize=auto;html=1;" edge="1" parent="1" source="VXRDN6rEVHIm9vuL8mrb-68" target="VXRDN6rEVHIm9vuL8mrb-65">
          <mxGeometry relative="1" as="geometry" />
        </mxCell>
        <mxCell id="VXRDN6rEVHIm9vuL8mrb-63" style="edgeStyle=orthogonalEdgeStyle;rounded=0;orthogonalLoop=1;jettySize=auto;html=1;entryX=1;entryY=0.5;entryDx=0;entryDy=0;dashed=1;dashPattern=1 4;" edge="1" parent="1" source="VXRDN6rEVHIm9vuL8mrb-70" target="VXRDN6rEVHIm9vuL8mrb-68">
          <mxGeometry relative="1" as="geometry" />
        </mxCell>
        <mxCell id="VXRDN6rEVHIm9vuL8mrb-64" value="" style="edgeStyle=orthogonalEdgeStyle;rounded=0;orthogonalLoop=1;jettySize=auto;html=1;" edge="1" parent="1" source="VXRDN6rEVHIm9vuL8mrb-72" target="VXRDN6rEVHIm9vuL8mrb-70">
          <mxGeometry relative="1" as="geometry" />
        </mxCell>
        <mxCell id="VXRDN6rEVHIm9vuL8mrb-65" value="b&lt;sub&gt;N&lt;/sub&gt;" style="rounded=0;whiteSpace=wrap;html=1;fillColor=#d5e8d4;strokeColor=#82b366;" vertex="1" parent="1">
          <mxGeometry x="760" y="280" width="40" height="40" as="geometry" />
        </mxCell>
        <mxCell id="VXRDN6rEVHIm9vuL8mrb-66" value="" style="edgeStyle=orthogonalEdgeStyle;rounded=0;orthogonalLoop=1;jettySize=auto;html=1;dashed=1;" edge="1" parent="1" source="VXRDN6rEVHIm9vuL8mrb-67" target="VXRDN6rEVHIm9vuL8mrb-69">
          <mxGeometry relative="1" as="geometry" />
        </mxCell>
        <mxCell id="VXRDN6rEVHIm9vuL8mrb-67" value="f&lt;span style=&quot;font-size: 9px;&quot;&gt;&lt;sub&gt;N-2&lt;/sub&gt;&lt;/span&gt;" style="rounded=0;whiteSpace=wrap;html=1;dashed=1;" vertex="1" parent="1">
          <mxGeometry x="840" y="200" width="40" height="40" as="geometry" />
        </mxCell>
        <mxCell id="VXRDN6rEVHIm9vuL8mrb-68" value="b&lt;font size=&quot;1&quot;&gt;&lt;sub&gt;N-1&lt;/sub&gt;&lt;/font&gt;" style="rounded=0;whiteSpace=wrap;html=1;" vertex="1" parent="1">
          <mxGeometry x="840" y="280" width="40" height="40" as="geometry" />
        </mxCell>
        <mxCell id="VXRDN6rEVHIm9vuL8mrb-69" value="f&lt;span style=&quot;font-size: 9px;&quot;&gt;&lt;sub&gt;N-1&lt;/sub&gt;&lt;/span&gt;" style="rounded=0;whiteSpace=wrap;html=1;dashed=1;" vertex="1" parent="1">
          <mxGeometry x="920" y="200" width="40" height="40" as="geometry" />
        </mxCell>
        <mxCell id="VXRDN6rEVHIm9vuL8mrb-70" value="b&lt;span style=&quot;font-size: 9px;&quot;&gt;&lt;sub&gt;1&lt;/sub&gt;&lt;/span&gt;" style="rounded=0;whiteSpace=wrap;html=1;" vertex="1" parent="1">
          <mxGeometry x="1080" y="280" width="40" height="40" as="geometry" />
        </mxCell>
        <mxCell id="VXRDN6rEVHIm9vuL8mrb-71" value="f&lt;span style=&quot;font-size: 7.5px;&quot;&gt;&lt;sub&gt;N&lt;/sub&gt;&lt;/span&gt;" style="rounded=0;whiteSpace=wrap;html=1;dashed=1;" vertex="1" parent="1">
          <mxGeometry x="1000" y="200" width="40" height="40" as="geometry" />
        </mxCell>
        <mxCell id="VXRDN6rEVHIm9vuL8mrb-72" value="b&lt;span style=&quot;font-size: 7.5px;&quot;&gt;&lt;sub&gt;0&lt;/sub&gt;&lt;/span&gt;" style="rounded=0;whiteSpace=wrap;html=1;" vertex="1" parent="1">
          <mxGeometry x="1160" y="280" width="40" height="40" as="geometry" />
        </mxCell>
        <mxCell id="VXRDN6rEVHIm9vuL8mrb-73" value="Process &lt;b&gt;Rem &lt;/b&gt;control message, through &lt;b&gt;ProcCtrlAdmin&lt;/b&gt;" style="rounded=0;whiteSpace=wrap;html=1;strokeColor=none;" vertex="1" parent="1">
          <mxGeometry x="760" y="350" width="310" height="40" as="geometry" />
        </mxCell>
        <mxCell id="VXRDN6rEVHIm9vuL8mrb-74" value="" style="edgeStyle=orthogonalEdgeStyle;rounded=0;orthogonalLoop=1;jettySize=auto;html=1;strokeColor=default;dashed=1;" edge="1" parent="1" source="VXRDN6rEVHIm9vuL8mrb-75" target="VXRDN6rEVHIm9vuL8mrb-67">
          <mxGeometry relative="1" as="geometry" />
        </mxCell>
        <mxCell id="VXRDN6rEVHIm9vuL8mrb-75" value="f&lt;span style=&quot;font-size: 9px;&quot;&gt;&lt;sub&gt;N-3&lt;/sub&gt;&lt;/span&gt;" style="rounded=0;whiteSpace=wrap;html=1;fillColor=#d5e8d4;strokeColor=#82b366;" vertex="1" parent="1">
          <mxGeometry x="760" y="200" width="40" height="40" as="geometry" />
        </mxCell>
        <mxCell id="VXRDN6rEVHIm9vuL8mrb-76" value="e&lt;sub&gt;c&lt;/sub&gt;" style="rounded=0;whiteSpace=wrap;html=1;strokeColor=none;" vertex="1" parent="1">
          <mxGeometry x="760" y="150" width="40" height="40" as="geometry" />
        </mxCell>
        <mxCell id="VXRDN6rEVHIm9vuL8mrb-77" value="e&lt;sub&gt;r&lt;/sub&gt;" style="rounded=0;whiteSpace=wrap;html=1;strokeColor=none;" vertex="1" parent="1">
          <mxGeometry x="840" y="150" width="40" height="40" as="geometry" />
        </mxCell>
        <mxCell id="VXRDN6rEVHIm9vuL8mrb-78" value="&lt;b&gt;&lt;font style=&quot;font-size: 14px;&quot;&gt;Sender Admin&lt;/font&gt;&lt;/b&gt;" style="rounded=0;whiteSpace=wrap;html=1;strokeColor=none;" vertex="1" parent="1">
          <mxGeometry x="240" y="100" width="290" height="40" as="geometry" />
        </mxCell>
        <mxCell id="VXRDN6rEVHIm9vuL8mrb-79" value="&lt;b&gt;&lt;font style=&quot;font-size: 14px;&quot;&gt;Receiver&lt;/font&gt;&lt;/b&gt;&lt;b&gt;&lt;font style=&quot;font-size: 14px;&quot;&gt;&amp;nbsp;Admin&lt;/font&gt;&lt;/b&gt;" style="rounded=0;whiteSpace=wrap;html=1;strokeColor=none;" vertex="1" parent="1">
          <mxGeometry x="760" y="100" width="290" height="40" as="geometry" />
        </mxCell>
        <mxCell id="VXRDN6rEVHIm9vuL8mrb-80" value="" style="edgeStyle=orthogonalEdgeStyle;rounded=0;orthogonalLoop=1;jettySize=auto;html=1;dashed=1;" edge="1" parent="1" source="VXRDN6rEVHIm9vuL8mrb-88" target="VXRDN6rEVHIm9vuL8mrb-90">
          <mxGeometry relative="1" as="geometry" />
        </mxCell>
        <mxCell id="VXRDN6rEVHIm9vuL8mrb-81" value="" style="edgeStyle=orthogonalEdgeStyle;rounded=0;orthogonalLoop=1;jettySize=auto;html=1;" edge="1" parent="1" source="VXRDN6rEVHIm9vuL8mrb-87" target="VXRDN6rEVHIm9vuL8mrb-84">
          <mxGeometry relative="1" as="geometry" />
        </mxCell>
        <mxCell id="VXRDN6rEVHIm9vuL8mrb-83" value="" style="edgeStyle=orthogonalEdgeStyle;rounded=0;orthogonalLoop=1;jettySize=auto;html=1;" edge="1" parent="1" source="VXRDN6rEVHIm9vuL8mrb-91" target="VXRDN6rEVHIm9vuL8mrb-89">
          <mxGeometry relative="1" as="geometry" />
        </mxCell>
        <mxCell id="VXRDN6rEVHIm9vuL8mrb-84" value="b&lt;sub&gt;N&lt;/sub&gt;" style="rounded=0;whiteSpace=wrap;html=1;fillColor=#d5e8d4;strokeColor=#82b366;" vertex="1" parent="1">
          <mxGeometry x="760" y="530" width="40" height="40" as="geometry" />
        </mxCell>
        <mxCell id="VXRDN6rEVHIm9vuL8mrb-85" value="" style="edgeStyle=orthogonalEdgeStyle;rounded=0;orthogonalLoop=1;jettySize=auto;html=1;dashed=1;" edge="1" parent="1" source="VXRDN6rEVHIm9vuL8mrb-86" target="VXRDN6rEVHIm9vuL8mrb-88">
          <mxGeometry relative="1" as="geometry" />
        </mxCell>
        <mxCell id="VXRDN6rEVHIm9vuL8mrb-86" value="f&lt;sup&gt;&#39;&lt;/sup&gt;&lt;sub&gt;0&lt;/sub&gt;" style="rounded=0;whiteSpace=wrap;html=1;fillColor=#d5e8d4;strokeColor=#82b366;" vertex="1" parent="1">
          <mxGeometry x="840" y="450" width="40" height="40" as="geometry" />
        </mxCell>
        <mxCell id="VXRDN6rEVHIm9vuL8mrb-87" value="b&lt;font size=&quot;1&quot;&gt;&lt;sub&gt;N-1&lt;/sub&gt;&lt;/font&gt;" style="rounded=0;whiteSpace=wrap;html=1;fillColor=#d5e8d4;strokeColor=#82b366;" vertex="1" parent="1">
          <mxGeometry x="840" y="530" width="40" height="40" as="geometry" />
        </mxCell>
        <mxCell id="VXRDN6rEVHIm9vuL8mrb-88" value="f&lt;sup&gt;&#39;&lt;/sup&gt;&lt;sub&gt;1&lt;/sub&gt;" style="rounded=0;whiteSpace=wrap;html=1;dashed=1;" vertex="1" parent="1">
          <mxGeometry x="920" y="450" width="40" height="40" as="geometry" />
        </mxCell>
        <mxCell id="VXRDN6rEVHIm9vuL8mrb-89" value="b&lt;span style=&quot;font-size: 9px;&quot;&gt;&lt;sub&gt;1&lt;/sub&gt;&lt;/span&gt;" style="rounded=0;whiteSpace=wrap;html=1;fillColor=#f8cecc;strokeColor=#b85450;" vertex="1" parent="1">
          <mxGeometry x="1080" y="530" width="40" height="40" as="geometry" />
        </mxCell>
        <mxCell id="VXRDN6rEVHIm9vuL8mrb-90" value="f&lt;sup&gt;&#39;&lt;/sup&gt;&lt;sub&gt;2&lt;/sub&gt;" style="rounded=0;whiteSpace=wrap;html=1;dashed=1;" vertex="1" parent="1">
          <mxGeometry x="1000" y="450" width="40" height="40" as="geometry" />
        </mxCell>
        <mxCell id="VXRDN6rEVHIm9vuL8mrb-91" value="b&lt;span style=&quot;font-size: 7.5px;&quot;&gt;&lt;sub&gt;0&lt;/sub&gt;&lt;/span&gt;" style="rounded=0;whiteSpace=wrap;html=1;fillColor=#f8cecc;strokeColor=#b85450;" vertex="1" parent="1">
          <mxGeometry x="1160" y="530" width="40" height="40" as="geometry" />
        </mxCell>
        <mxCell id="VXRDN6rEVHIm9vuL8mrb-92" value="f&lt;span style=&quot;font-size: 9px;&quot;&gt;&lt;sub&gt;N-3&lt;/sub&gt;&lt;/span&gt;" style="rounded=0;whiteSpace=wrap;html=1;fillColor=#d5e8d4;strokeColor=#82b366;" vertex="1" parent="1">
          <mxGeometry x="760" y="450" width="40" height="40" as="geometry" />
        </mxCell>
        <mxCell id="VXRDN6rEVHIm9vuL8mrb-93" value="e&lt;sub&gt;c&lt;/sub&gt;" style="rounded=0;whiteSpace=wrap;html=1;strokeColor=none;" vertex="1" parent="1">
          <mxGeometry x="760" y="400" width="40" height="40" as="geometry" />
        </mxCell>
        <mxCell id="VXRDN6rEVHIm9vuL8mrb-94" value="e&lt;sub&gt;r&lt;/sub&gt;" style="rounded=0;whiteSpace=wrap;html=1;strokeColor=none;" vertex="1" parent="1">
          <mxGeometry x="840" y="400" width="40" height="40" as="geometry" />
        </mxCell>
        <mxCell id="VXRDN6rEVHIm9vuL8mrb-95" value="Process the extension,&amp;nbsp;&lt;div&gt;access to elements before b&lt;sub&gt;N-1 &lt;/sub&gt;are lost!&lt;/div&gt;" style="rounded=0;whiteSpace=wrap;html=1;strokeColor=none;" vertex="1" parent="1">
          <mxGeometry x="760" y="600" width="290" height="40" as="geometry" />
        </mxCell>
      </root>
    </mxGraphModel>
  </diagram>
</mxfile>
